<?xml version="1.0" encoding="UTF-8"?>
<svg width="45px" height="40px" viewBox="0 0 115 52" version="1.1" xmlns="http://www.w3.org/2000/svg"
     xmlns:xlink="http://www.w3.org/1999/xlink">
    <title>Header / 99. Logo</title>
    <g id="Header-/-99.-Logo" stroke="none" stroke-width="1" fill="none" fill-rule="evenodd">
        <path d="M82.8350067,4.67766542 L72.9445892,23.5358662 C72.7296863,23.9438491 72.1201435,23.9438491 71.9052406,23.5358662 L62.0060315,4.67766542 C61.9073716,4.48883882 61.7120053,4.37143367 61.4990561,4.37143367 L56.7155129,4.37143367 C56.390228,4.37143367 56.1831398,4.71777884 56.3365023,5.00444306 L71.9189162,34.2167989 C72.134796,34.6198899 72.714057,34.6198899 72.9289599,34.2167989 L88.5123506,5.00542144 C88.66669,4.71875722 88.4586249,4.37143367 88.1343169,4.37143367 L83.3419822,4.37143367 C83.129033,4.37143367 82.9346435,4.48981719 82.8350067,4.67766542"
              id="Fill-1" fill="#FFFFFF" fill-rule="nonzero"></path>
        <path d="M88.4499311,29.8421855 L98.3403487,10.9839847 C98.5562284,10.5760019 99.1657712,10.5760019 99.3796973,10.9839847 L109.278906,29.8421855 C109.378543,30.0310121 109.573909,30.1484173 109.785882,30.1484173 L114.569425,30.1484173 C114.89471,30.1484173 115.101798,29.8020721 114.948436,29.5154079 L99.3660216,0.303052021 C99.1501419,-0.10101734 98.5708809,-0.10101734 98.355978,0.303052021 L82.7725872,29.5144295 C82.6182479,29.8010937 82.8263129,30.1484173 83.1515978,30.1484173 L87.9429556,30.1484173 C88.1559049,30.1484173 88.3502943,30.0300338 88.4499311,29.8421855"
              id="Fill-3" fill="#FFFFFF" fill-rule="nonzero"></path>
        <path d="M14.463942,30.1479281 L5.54644849,30.1489065 C5.22995513,30.1489065 4.97402531,29.8915935 4.97402531,29.5745996 L4.97304848,21.5665906 C4.97304848,21.2495968 5.22995513,20.9922838 5.54644849,20.9922838 L14.463942,20.9922838 C18.7141353,20.9922838 20.6111418,22.1986217 20.6111418,25.570106 C20.6111418,28.9425686 18.7551622,30.1479281 14.463942,30.1479281 M5.55133265,8.73029521 L14.3447686,8.73029521 C17.5858951,8.73029521 19.2367401,10.1195894 19.2367401,12.6780431 C19.2367401,15.2482373 17.5917561,16.625791 14.3447686,16.625791 L5.55133265,16.625791 C5.23581612,16.625791 4.97890947,16.3694564 4.97890947,16.0524625 L4.97890947,9.30460203 C4.97890947,8.98760815 5.23581612,8.73029521 5.55133265,8.73029521 M20.8612106,18.2831602 C22.9252553,17.2480382 24.2146727,15.0095135 24.2146727,12.2524494 C24.2146727,7.55820056 20.5593697,4.37065097 15.3997465,4.37065097 L0.57242318,4.37065097 C0.255929818,4.37065097 0,4.62796391 0,4.94397941 L0,33.945006 C0,34.2629783 0.255929818,34.5193128 0.57242318,34.5193128 L14.7491768,34.5193128 C21.843903,34.5193128 25.5851671,31.4609089 25.5851671,25.4752035 C25.5851671,19.6303842 20.8612106,18.2831602 20.8612106,18.2831602"
              id="Fill-6" fill="#FFFFFF" fill-rule="nonzero"></path>
        <path d="M44.8783681,30.1479281 L35.9618513,30.1489065 C35.645358,30.1489065 35.3884513,29.8915935 35.3884513,29.5745996 L35.3884513,21.5665906 C35.3884513,21.2495968 35.6443812,20.9922838 35.9618513,20.9922838 L44.8783681,20.9922838 C49.1285613,20.9922838 51.0265447,22.1986217 51.0265447,25.570106 C51.0265447,28.9425686 49.1695882,30.1479281 44.8783681,30.1479281 M35.9667355,8.73029521 L44.7591946,8.73029521 C48.0012979,8.73029521 49.6511661,10.1195894 49.6511661,12.6780431 C49.6511661,15.2482373 48.0071589,16.625791 44.7601715,16.625791 L35.9667355,16.625791 C35.6502421,16.625791 35.3943123,16.3694564 35.3943123,16.0524625 L35.3943123,9.30460203 C35.3943123,8.98760815 35.6502421,8.73029521 35.9667355,8.73029521 M51.2756367,18.2831602 C53.3396813,17.2480382 54.6290987,15.0095135 54.6290987,12.2524494 C54.6290987,7.55820056 50.9747726,4.37065097 45.8141725,4.37065097 L30.987826,4.37065097 C30.6713327,4.37065097 30.414426,4.62796391 30.414426,4.94397941 L30.414426,33.945006 C30.414426,34.2629783 30.6713327,34.5193128 30.987826,34.5193128 L45.1636028,34.5193128 C52.2593058,34.5193128 56.00057,31.4609089 56.00057,25.4752035 C56.00057,19.6303842 51.2756367,18.2831602 51.2756367,18.2831602"
              id="Fill-8" fill="#FFFFFF" fill-rule="nonzero"></path>
        <path d="M82.2532447,51.8418977 L82.2532447,47.1275757 L84.6640848,47.1275757 C86.902722,47.1275757 88.4812483,46.2651997 88.4812483,44.1092598 C88.4812483,42.1401679 87.0605747,41.2059273 84.7645365,41.2059273 L81.2343777,41.2059273 L81.2343777,51.8418977 L82.2532447,51.8418977 Z M84.735836,46.2220809 L82.2532447,46.2220809 L82.2532447,42.1401679 L84.7214857,42.1401679 C86.5009154,42.1401679 87.4623814,42.7007123 87.4623814,44.1380056 C87.4623814,45.6615365 86.4865651,46.2220809 84.735836,46.2220809 Z M90.8105689,42.6144747 C91.1836751,42.6144747 91.413279,42.3701349 91.413279,41.9820657 C91.413279,41.6083694 91.1836751,41.3784025 90.8105689,41.3784025 C90.4374627,41.3784025 90.2078589,41.6083694 90.2078589,41.9820657 C90.2078589,42.3701349 90.4374627,42.6144747 90.8105689,42.6144747 Z M91.3128273,51.8418977 L91.3128273,44.2817349 L90.3226608,44.2817349 L90.3226608,51.8418977 L91.3128273,51.8418977 Z M96.6700483,51.8850165 L99.453995,44.2817349 L98.4494783,44.2817349 L96.2251909,50.6633172 L96.1964904,50.6633172 L93.9148025,44.1811244 L92.924636,44.3679725 L95.6798818,51.8850165 L96.6700483,51.8850165 Z M103.605796,52 C105.456976,52 107.021152,50.5770796 107.021152,48.0618163 C107.021152,45.5321801 105.456976,44.1236327 103.605796,44.1236327 C101.740265,44.1236327 100.176088,45.5321801 100.176088,48.0618163 C100.176088,50.5770796 101.754615,52 103.605796,52 Z M103.605796,51.1519969 C101.984219,51.1519969 101.166255,49.7434495 101.166255,48.0618163 C101.166255,46.2795726 102.07032,44.9716357 103.605796,44.9716357 C105.198672,44.9716357 106.030986,46.3945561 106.030986,48.0618163 C106.030986,49.84406 105.126921,51.1519969 103.605796,51.1519969 Z M111.373857,51.9425083 C111.746963,51.9425083 112.16312,51.8993895 112.407074,51.8562707 L112.292272,51.0082676 C112.091369,51.0657594 111.818714,51.1088782 111.54606,51.1088782 C110.670695,51.1088782 110.36934,50.706436 110.36934,49.9015518 L110.36934,45.1153651 L112.335323,45.1153651 L112.335323,44.2817349 L110.36934,44.2817349 L110.36934,41.479013 L109.379173,41.6227423 L109.379173,44.2817349 L108.073302,44.2817349 L108.073302,45.1153651 L109.379173,45.1153651 L109.379173,50.0452811 C109.379173,51.4250827 110.024934,51.9425083 111.373857,51.9425083 Z"
              id="Pivot" fill="#FFFFFF" fill-rule="nonzero"></path>
    </g>
</svg>
